<mxfile host="app.diagrams.net" modified="2022-09-11T14:17:13.627Z" agent="5.0 (Macintosh; Intel Mac OS X 10_15_7) AppleWebKit/537.36 (KHTML, like Gecko) Chrome/104.0.0.0 Safari/537.36" etag="46ZOrVWY49FRwtda4W3k" version="20.2.8" type="github">
  <diagram id="olko7F8SfavPoFi1_mti" name="Page-1">
    <mxGraphModel dx="728" dy="520" grid="1" gridSize="10" guides="1" tooltips="1" connect="1" arrows="1" fold="1" page="1" pageScale="1" pageWidth="850" pageHeight="1100" math="0" shadow="0">
      <root>
        <mxCell id="0" />
        <mxCell id="1" parent="0" />
        <mxCell id="rgccAahFGEd6I9u7G07c-8" style="edgeStyle=orthogonalEdgeStyle;rounded=0;orthogonalLoop=1;jettySize=auto;html=1;exitX=1;exitY=0.5;exitDx=0;exitDy=0;entryX=0;entryY=0.5;entryDx=0;entryDy=0;" parent="1" source="rgccAahFGEd6I9u7G07c-1" target="rgccAahFGEd6I9u7G07c-3" edge="1">
          <mxGeometry relative="1" as="geometry" />
        </mxCell>
        <mxCell id="rgccAahFGEd6I9u7G07c-15" style="edgeStyle=orthogonalEdgeStyle;rounded=0;orthogonalLoop=1;jettySize=auto;html=1;exitX=0.5;exitY=1;exitDx=0;exitDy=0;entryX=0.5;entryY=0;entryDx=0;entryDy=0;startArrow=classic;startFill=1;dashed=1;" parent="1" source="rgccAahFGEd6I9u7G07c-1" target="rgccAahFGEd6I9u7G07c-14" edge="1">
          <mxGeometry relative="1" as="geometry" />
        </mxCell>
        <mxCell id="rgccAahFGEd6I9u7G07c-1" value="model" style="ellipse;whiteSpace=wrap;html=1;aspect=fixed;fillColor=#dae8fc;strokeColor=#6c8ebf;" parent="1" vertex="1">
          <mxGeometry x="200" y="190" width="80" height="80" as="geometry" />
        </mxCell>
        <mxCell id="rgccAahFGEd6I9u7G07c-7" style="edgeStyle=orthogonalEdgeStyle;rounded=0;orthogonalLoop=1;jettySize=auto;html=1;exitX=1;exitY=0.5;exitDx=0;exitDy=0;entryX=0;entryY=0.5;entryDx=0;entryDy=0;" parent="1" source="rgccAahFGEd6I9u7G07c-2" target="rgccAahFGEd6I9u7G07c-1" edge="1">
          <mxGeometry relative="1" as="geometry" />
        </mxCell>
        <mxCell id="rgccAahFGEd6I9u7G07c-2" value="input" style="rounded=1;whiteSpace=wrap;html=1;fillColor=#ffe6cc;strokeColor=#d79b00;" parent="1" vertex="1">
          <mxGeometry x="60" y="200" width="100" height="60" as="geometry" />
        </mxCell>
        <mxCell id="rgccAahFGEd6I9u7G07c-9" style="rounded=0;orthogonalLoop=1;jettySize=auto;html=1;exitX=1;exitY=0.5;exitDx=0;exitDy=0;entryX=0;entryY=0.5;entryDx=0;entryDy=0;" parent="1" source="rgccAahFGEd6I9u7G07c-3" target="rgccAahFGEd6I9u7G07c-5" edge="1">
          <mxGeometry relative="1" as="geometry" />
        </mxCell>
        <mxCell id="rgccAahFGEd6I9u7G07c-3" value="output" style="rounded=1;whiteSpace=wrap;html=1;fillColor=#fff2cc;strokeColor=#d6b656;" parent="1" vertex="1">
          <mxGeometry x="320" y="200" width="100" height="60" as="geometry" />
        </mxCell>
        <mxCell id="rgccAahFGEd6I9u7G07c-10" style="edgeStyle=none;rounded=0;orthogonalLoop=1;jettySize=auto;html=1;exitX=1;exitY=0.5;exitDx=0;exitDy=0;entryX=0;entryY=0.5;entryDx=0;entryDy=0;" parent="1" source="rgccAahFGEd6I9u7G07c-4" target="rgccAahFGEd6I9u7G07c-5" edge="1">
          <mxGeometry relative="1" as="geometry" />
        </mxCell>
        <mxCell id="rgccAahFGEd6I9u7G07c-4" value="target" style="rounded=1;whiteSpace=wrap;html=1;fillColor=#e1d5e7;strokeColor=#9673a6;" parent="1" vertex="1">
          <mxGeometry x="320" y="320" width="100" height="60" as="geometry" />
        </mxCell>
        <mxCell id="rgccAahFGEd6I9u7G07c-11" style="edgeStyle=none;rounded=0;orthogonalLoop=1;jettySize=auto;html=1;exitX=1;exitY=0.5;exitDx=0;exitDy=0;" parent="1" source="rgccAahFGEd6I9u7G07c-5" target="rgccAahFGEd6I9u7G07c-6" edge="1">
          <mxGeometry relative="1" as="geometry" />
        </mxCell>
        <mxCell id="rgccAahFGEd6I9u7G07c-5" value="loss&lt;br&gt;function" style="ellipse;whiteSpace=wrap;html=1;aspect=fixed;fillColor=#dae8fc;strokeColor=#6c8ebf;" parent="1" vertex="1">
          <mxGeometry x="480" y="250" width="80" height="80" as="geometry" />
        </mxCell>
        <mxCell id="rgccAahFGEd6I9u7G07c-12" style="edgeStyle=orthogonalEdgeStyle;rounded=0;orthogonalLoop=1;jettySize=auto;html=1;exitX=0.5;exitY=0;exitDx=0;exitDy=0;entryX=0.5;entryY=0;entryDx=0;entryDy=0;dashed=1;" parent="1" source="rgccAahFGEd6I9u7G07c-6" target="rgccAahFGEd6I9u7G07c-1" edge="1">
          <mxGeometry relative="1" as="geometry">
            <Array as="points">
              <mxPoint x="650" y="160" />
              <mxPoint x="240" y="160" />
            </Array>
          </mxGeometry>
        </mxCell>
        <mxCell id="rgccAahFGEd6I9u7G07c-6" value="loss" style="rounded=1;whiteSpace=wrap;html=1;fillColor=#f8cecc;strokeColor=#b85450;" parent="1" vertex="1">
          <mxGeometry x="610" y="260" width="100" height="60" as="geometry" />
        </mxCell>
        <mxCell id="rgccAahFGEd6I9u7G07c-13" value="backward" style="text;html=1;strokeColor=none;fillColor=none;align=center;verticalAlign=middle;whiteSpace=wrap;rounded=0;" parent="1" vertex="1">
          <mxGeometry x="370" y="130" width="110" height="30" as="geometry" />
        </mxCell>
        <mxCell id="rgccAahFGEd6I9u7G07c-14" value="optimizer" style="ellipse;whiteSpace=wrap;html=1;aspect=fixed;fillColor=#dae8fc;strokeColor=#6c8ebf;" parent="1" vertex="1">
          <mxGeometry x="200" y="310" width="80" height="80" as="geometry" />
        </mxCell>
        <mxCell id="rgccAahFGEd6I9u7G07c-16" value="w" style="text;html=1;strokeColor=none;fillColor=none;align=center;verticalAlign=middle;whiteSpace=wrap;rounded=0;" parent="1" vertex="1">
          <mxGeometry x="213" y="276" width="30" height="30" as="geometry" />
        </mxCell>
        <mxCell id="CwHeHj8e9Ih9zQLxfv2A-5" style="edgeStyle=orthogonalEdgeStyle;rounded=0;orthogonalLoop=1;jettySize=auto;html=1;exitX=0.5;exitY=1;exitDx=0;exitDy=0;entryX=0.5;entryY=0;entryDx=0;entryDy=0;" edge="1" parent="1" source="CwHeHj8e9Ih9zQLxfv2A-1" target="CwHeHj8e9Ih9zQLxfv2A-3">
          <mxGeometry relative="1" as="geometry" />
        </mxCell>
        <mxCell id="CwHeHj8e9Ih9zQLxfv2A-6" style="edgeStyle=orthogonalEdgeStyle;rounded=0;orthogonalLoop=1;jettySize=auto;html=1;exitX=0.5;exitY=1;exitDx=0;exitDy=0;entryX=0.5;entryY=0;entryDx=0;entryDy=0;" edge="1" parent="1" source="CwHeHj8e9Ih9zQLxfv2A-1" target="CwHeHj8e9Ih9zQLxfv2A-2">
          <mxGeometry relative="1" as="geometry" />
        </mxCell>
        <mxCell id="CwHeHj8e9Ih9zQLxfv2A-7" style="edgeStyle=orthogonalEdgeStyle;rounded=0;orthogonalLoop=1;jettySize=auto;html=1;exitX=0.5;exitY=1;exitDx=0;exitDy=0;" edge="1" parent="1" source="CwHeHj8e9Ih9zQLxfv2A-1" target="CwHeHj8e9Ih9zQLxfv2A-4">
          <mxGeometry relative="1" as="geometry" />
        </mxCell>
        <mxCell id="CwHeHj8e9Ih9zQLxfv2A-1" value="Training" style="rounded=1;whiteSpace=wrap;html=1;fillColor=#d5e8d4;strokeColor=#82b366;" vertex="1" parent="1">
          <mxGeometry x="320" y="480" width="100" height="60" as="geometry" />
        </mxCell>
        <mxCell id="CwHeHj8e9Ih9zQLxfv2A-2" value="Loss Function" style="rounded=1;whiteSpace=wrap;html=1;fillColor=#dae8fc;strokeColor=#6c8ebf;" vertex="1" parent="1">
          <mxGeometry x="320" y="600" width="100" height="60" as="geometry" />
        </mxCell>
        <mxCell id="CwHeHj8e9Ih9zQLxfv2A-3" value="Define Neural Network" style="rounded=1;whiteSpace=wrap;html=1;fillColor=#dae8fc;strokeColor=#6c8ebf;" vertex="1" parent="1">
          <mxGeometry x="178" y="600" width="100" height="60" as="geometry" />
        </mxCell>
        <mxCell id="CwHeHj8e9Ih9zQLxfv2A-4" value="Optimization Algorithm" style="rounded=1;whiteSpace=wrap;html=1;fillColor=#dae8fc;strokeColor=#6c8ebf;" vertex="1" parent="1">
          <mxGeometry x="460" y="600" width="100" height="60" as="geometry" />
        </mxCell>
      </root>
    </mxGraphModel>
  </diagram>
</mxfile>
